<mxfile host="app.diagrams.net" modified="2022-10-27T05:59:54.813Z" agent="5.0 (Windows NT 10.0; Win64; x64) AppleWebKit/537.36 (KHTML, like Gecko) Chrome/106.0.0.0 Safari/537.36" etag="AGeK6II5QcfqP_U4P41E" version="20.4.1" type="github">
  <diagram id="C5RBs43oDa-KdzZeNtuy" name="Page-1">
    <mxGraphModel dx="1278" dy="481" grid="1" gridSize="10" guides="1" tooltips="1" connect="1" arrows="1" fold="1" page="1" pageScale="1" pageWidth="827" pageHeight="1169" math="0" shadow="0">
      <root>
        <mxCell id="WIyWlLk6GJQsqaUBKTNV-0" />
        <mxCell id="WIyWlLk6GJQsqaUBKTNV-1" parent="WIyWlLk6GJQsqaUBKTNV-0" />
        <mxCell id="IhsBr4k26jk_mUPnTSFp-13" style="edgeStyle=orthogonalEdgeStyle;rounded=0;orthogonalLoop=1;jettySize=auto;html=1;exitX=0.5;exitY=1;exitDx=0;exitDy=0;entryX=0.5;entryY=0;entryDx=0;entryDy=0;" edge="1" parent="WIyWlLk6GJQsqaUBKTNV-1" source="IhsBr4k26jk_mUPnTSFp-0" target="IhsBr4k26jk_mUPnTSFp-6">
          <mxGeometry relative="1" as="geometry" />
        </mxCell>
        <mxCell id="IhsBr4k26jk_mUPnTSFp-0" value="1. Design initial training algorithm architecture" style="swimlane;fillColor=#FF9999;" vertex="1" parent="WIyWlLk6GJQsqaUBKTNV-1">
          <mxGeometry x="40" width="540" height="130" as="geometry" />
        </mxCell>
        <mxCell id="IhsBr4k26jk_mUPnTSFp-3" value="" style="edgeStyle=orthogonalEdgeStyle;rounded=0;orthogonalLoop=1;jettySize=auto;html=1;" edge="1" parent="IhsBr4k26jk_mUPnTSFp-0" source="IhsBr4k26jk_mUPnTSFp-1" target="IhsBr4k26jk_mUPnTSFp-2">
          <mxGeometry relative="1" as="geometry" />
        </mxCell>
        <mxCell id="IhsBr4k26jk_mUPnTSFp-1" value="Define inputs and outputs (define simulation interaction)." style="rounded=1;whiteSpace=wrap;html=1;absoluteArcSize=1;arcSize=14;strokeWidth=2;" vertex="1" parent="IhsBr4k26jk_mUPnTSFp-0">
          <mxGeometry x="40" y="40" width="100" height="70" as="geometry" />
        </mxCell>
        <mxCell id="IhsBr4k26jk_mUPnTSFp-5" value="" style="edgeStyle=orthogonalEdgeStyle;rounded=0;orthogonalLoop=1;jettySize=auto;html=1;" edge="1" parent="IhsBr4k26jk_mUPnTSFp-0" source="IhsBr4k26jk_mUPnTSFp-2" target="IhsBr4k26jk_mUPnTSFp-4">
          <mxGeometry relative="1" as="geometry" />
        </mxCell>
        <mxCell id="IhsBr4k26jk_mUPnTSFp-2" value="Define sub-components (if any)." style="rounded=1;whiteSpace=wrap;html=1;absoluteArcSize=1;arcSize=14;strokeWidth=2;" vertex="1" parent="IhsBr4k26jk_mUPnTSFp-0">
          <mxGeometry x="220" y="40" width="100" height="70" as="geometry" />
        </mxCell>
        <mxCell id="IhsBr4k26jk_mUPnTSFp-4" value="Roughly define reward function terms." style="rounded=1;whiteSpace=wrap;html=1;absoluteArcSize=1;arcSize=14;strokeWidth=2;" vertex="1" parent="IhsBr4k26jk_mUPnTSFp-0">
          <mxGeometry x="400" y="40" width="100" height="70" as="geometry" />
        </mxCell>
        <mxCell id="IhsBr4k26jk_mUPnTSFp-25" style="edgeStyle=orthogonalEdgeStyle;rounded=0;orthogonalLoop=1;jettySize=auto;html=1;exitX=0.5;exitY=1;exitDx=0;exitDy=0;" edge="1" parent="WIyWlLk6GJQsqaUBKTNV-1" source="IhsBr4k26jk_mUPnTSFp-6" target="IhsBr4k26jk_mUPnTSFp-17">
          <mxGeometry relative="1" as="geometry" />
        </mxCell>
        <mxCell id="IhsBr4k26jk_mUPnTSFp-6" value="2. Configure simulation environment" style="swimlane;fillColor=#E5CCFF;" vertex="1" parent="WIyWlLk6GJQsqaUBKTNV-1">
          <mxGeometry x="40" y="162" width="540" height="131" as="geometry" />
        </mxCell>
        <mxCell id="IhsBr4k26jk_mUPnTSFp-8" value="Create abnormal gait patient simulation for gait correction training." style="rounded=1;whiteSpace=wrap;html=1;absoluteArcSize=1;arcSize=14;strokeWidth=2;" vertex="1" parent="IhsBr4k26jk_mUPnTSFp-6">
          <mxGeometry x="330" y="41" width="127" height="70" as="geometry" />
        </mxCell>
        <mxCell id="IhsBr4k26jk_mUPnTSFp-11" value="" style="edgeStyle=orthogonalEdgeStyle;rounded=0;orthogonalLoop=1;jettySize=auto;html=1;" edge="1" parent="IhsBr4k26jk_mUPnTSFp-6" source="IhsBr4k26jk_mUPnTSFp-10" target="IhsBr4k26jk_mUPnTSFp-8">
          <mxGeometry relative="1" as="geometry" />
        </mxCell>
        <mxCell id="IhsBr4k26jk_mUPnTSFp-10" value="Select existing muscularskeletal framework." style="rounded=1;whiteSpace=wrap;html=1;absoluteArcSize=1;arcSize=14;strokeWidth=2;" vertex="1" parent="IhsBr4k26jk_mUPnTSFp-6">
          <mxGeometry x="80" y="41" width="127" height="70" as="geometry" />
        </mxCell>
        <mxCell id="IhsBr4k26jk_mUPnTSFp-35" style="edgeStyle=orthogonalEdgeStyle;rounded=0;orthogonalLoop=1;jettySize=auto;html=1;exitX=0.5;exitY=1;exitDx=0;exitDy=0;" edge="1" parent="WIyWlLk6GJQsqaUBKTNV-1" source="IhsBr4k26jk_mUPnTSFp-17" target="IhsBr4k26jk_mUPnTSFp-21">
          <mxGeometry relative="1" as="geometry" />
        </mxCell>
        <mxCell id="IhsBr4k26jk_mUPnTSFp-17" value="3. Develop training algorithm" style="swimlane;fillColor=#99FFFF;" vertex="1" parent="WIyWlLk6GJQsqaUBKTNV-1">
          <mxGeometry x="40" y="320" width="540" height="131" as="geometry" />
        </mxCell>
        <mxCell id="IhsBr4k26jk_mUPnTSFp-74" value="" style="edgeStyle=orthogonalEdgeStyle;rounded=0;orthogonalLoop=1;jettySize=auto;html=1;" edge="1" parent="IhsBr4k26jk_mUPnTSFp-17" source="IhsBr4k26jk_mUPnTSFp-18" target="IhsBr4k26jk_mUPnTSFp-73">
          <mxGeometry relative="1" as="geometry" />
        </mxCell>
        <mxCell id="IhsBr4k26jk_mUPnTSFp-18" value="Tune each sub-component reward function/ hyperparameters/ANN/ inputs and outputs until a good policy is formed." style="rounded=1;whiteSpace=wrap;html=1;absoluteArcSize=1;arcSize=14;strokeWidth=2;" vertex="1" parent="IhsBr4k26jk_mUPnTSFp-17">
          <mxGeometry x="170" y="41" width="200" height="70" as="geometry" />
        </mxCell>
        <mxCell id="IhsBr4k26jk_mUPnTSFp-19" value="" style="edgeStyle=orthogonalEdgeStyle;rounded=0;orthogonalLoop=1;jettySize=auto;html=1;" edge="1" parent="IhsBr4k26jk_mUPnTSFp-17" source="IhsBr4k26jk_mUPnTSFp-20" target="IhsBr4k26jk_mUPnTSFp-18">
          <mxGeometry relative="1" as="geometry" />
        </mxCell>
        <mxCell id="IhsBr4k26jk_mUPnTSFp-20" value="Integrate each sub-component with simulation for training." style="rounded=1;whiteSpace=wrap;html=1;absoluteArcSize=1;arcSize=14;strokeWidth=2;" vertex="1" parent="IhsBr4k26jk_mUPnTSFp-17">
          <mxGeometry x="10" y="41" width="132" height="70" as="geometry" />
        </mxCell>
        <mxCell id="IhsBr4k26jk_mUPnTSFp-73" value="Combine all sub-components and tune full algorithm." style="rounded=1;whiteSpace=wrap;html=1;absoluteArcSize=1;arcSize=14;strokeWidth=2;" vertex="1" parent="IhsBr4k26jk_mUPnTSFp-17">
          <mxGeometry x="400" y="41" width="133" height="70" as="geometry" />
        </mxCell>
        <mxCell id="IhsBr4k26jk_mUPnTSFp-53" style="edgeStyle=orthogonalEdgeStyle;rounded=0;orthogonalLoop=1;jettySize=auto;html=1;exitX=0.5;exitY=1;exitDx=0;exitDy=0;entryX=0.5;entryY=0;entryDx=0;entryDy=0;" edge="1" parent="WIyWlLk6GJQsqaUBKTNV-1" source="IhsBr4k26jk_mUPnTSFp-21" target="IhsBr4k26jk_mUPnTSFp-36">
          <mxGeometry relative="1" as="geometry" />
        </mxCell>
        <mxCell id="IhsBr4k26jk_mUPnTSFp-21" value="4.Â Augment implementation for massive parallelisation with perturbation." style="swimlane;fillColor=#E1D5E7;" vertex="1" parent="WIyWlLk6GJQsqaUBKTNV-1">
          <mxGeometry x="40" y="480" width="540" height="230" as="geometry" />
        </mxCell>
        <mxCell id="IhsBr4k26jk_mUPnTSFp-32" value="" style="edgeStyle=orthogonalEdgeStyle;rounded=0;orthogonalLoop=1;jettySize=auto;html=1;" edge="1" parent="IhsBr4k26jk_mUPnTSFp-21" source="IhsBr4k26jk_mUPnTSFp-26" target="IhsBr4k26jk_mUPnTSFp-27">
          <mxGeometry relative="1" as="geometry" />
        </mxCell>
        <mxCell id="IhsBr4k26jk_mUPnTSFp-26" value="Select framework/ software for GPU parallelisation." style="rounded=1;whiteSpace=wrap;html=1;absoluteArcSize=1;arcSize=14;strokeWidth=2;" vertex="1" parent="IhsBr4k26jk_mUPnTSFp-21">
          <mxGeometry x="210" y="40" width="120" height="70" as="geometry" />
        </mxCell>
        <mxCell id="IhsBr4k26jk_mUPnTSFp-33" style="edgeStyle=orthogonalEdgeStyle;rounded=0;orthogonalLoop=1;jettySize=auto;html=1;exitX=1;exitY=0.5;exitDx=0;exitDy=0;entryX=0;entryY=0.5;entryDx=0;entryDy=0;" edge="1" parent="IhsBr4k26jk_mUPnTSFp-21" source="IhsBr4k26jk_mUPnTSFp-27" target="IhsBr4k26jk_mUPnTSFp-28">
          <mxGeometry relative="1" as="geometry">
            <Array as="points">
              <mxPoint x="530" y="75" />
              <mxPoint x="530" y="120" />
              <mxPoint x="80" y="120" />
              <mxPoint x="80" y="174" />
            </Array>
          </mxGeometry>
        </mxCell>
        <mxCell id="IhsBr4k26jk_mUPnTSFp-27" value="Integrate simulation with parallelisation software, using patient instances." style="rounded=1;whiteSpace=wrap;html=1;absoluteArcSize=1;arcSize=14;strokeWidth=2;" vertex="1" parent="IhsBr4k26jk_mUPnTSFp-21">
          <mxGeometry x="400" y="40" width="120" height="70" as="geometry" />
        </mxCell>
        <mxCell id="IhsBr4k26jk_mUPnTSFp-34" value="" style="edgeStyle=orthogonalEdgeStyle;rounded=0;orthogonalLoop=1;jettySize=auto;html=1;" edge="1" parent="IhsBr4k26jk_mUPnTSFp-21" source="IhsBr4k26jk_mUPnTSFp-28" target="IhsBr4k26jk_mUPnTSFp-29">
          <mxGeometry relative="1" as="geometry" />
        </mxCell>
        <mxCell id="IhsBr4k26jk_mUPnTSFp-28" value="Apply perturbations to the simulation." style="rounded=1;whiteSpace=wrap;html=1;absoluteArcSize=1;arcSize=14;strokeWidth=2;" vertex="1" parent="IhsBr4k26jk_mUPnTSFp-21">
          <mxGeometry x="118" y="134" width="120" height="80" as="geometry" />
        </mxCell>
        <mxCell id="IhsBr4k26jk_mUPnTSFp-29" value="Re-tune parameters/ perturbations/ parallelisation settings, untill robust generalised policy is formed." style="rounded=1;whiteSpace=wrap;html=1;absoluteArcSize=1;arcSize=14;strokeWidth=2;" vertex="1" parent="IhsBr4k26jk_mUPnTSFp-21">
          <mxGeometry x="300" y="134" width="130" height="80" as="geometry" />
        </mxCell>
        <mxCell id="IhsBr4k26jk_mUPnTSFp-31" value="" style="edgeStyle=orthogonalEdgeStyle;rounded=0;orthogonalLoop=1;jettySize=auto;html=1;" edge="1" parent="IhsBr4k26jk_mUPnTSFp-21" source="IhsBr4k26jk_mUPnTSFp-30" target="IhsBr4k26jk_mUPnTSFp-26">
          <mxGeometry relative="1" as="geometry" />
        </mxCell>
        <mxCell id="IhsBr4k26jk_mUPnTSFp-30" value="Create hundreds of different patient instances." style="rounded=1;whiteSpace=wrap;html=1;absoluteArcSize=1;arcSize=14;strokeWidth=2;" vertex="1" parent="IhsBr4k26jk_mUPnTSFp-21">
          <mxGeometry x="20" y="40" width="120" height="70" as="geometry" />
        </mxCell>
        <mxCell id="IhsBr4k26jk_mUPnTSFp-66" style="edgeStyle=orthogonalEdgeStyle;rounded=0;orthogonalLoop=1;jettySize=auto;html=1;exitX=0.5;exitY=1;exitDx=0;exitDy=0;" edge="1" parent="WIyWlLk6GJQsqaUBKTNV-1" source="IhsBr4k26jk_mUPnTSFp-36" target="IhsBr4k26jk_mUPnTSFp-55">
          <mxGeometry relative="1" as="geometry" />
        </mxCell>
        <mxCell id="IhsBr4k26jk_mUPnTSFp-36" value="5. Transfer to hardware" style="swimlane;fillColor=#99FF99;" vertex="1" parent="WIyWlLk6GJQsqaUBKTNV-1">
          <mxGeometry x="40" y="730" width="540" height="210" as="geometry" />
        </mxCell>
        <mxCell id="IhsBr4k26jk_mUPnTSFp-41" value="" style="edgeStyle=orthogonalEdgeStyle;rounded=0;orthogonalLoop=1;jettySize=auto;html=1;" edge="1" parent="IhsBr4k26jk_mUPnTSFp-36" source="IhsBr4k26jk_mUPnTSFp-37" target="IhsBr4k26jk_mUPnTSFp-39">
          <mxGeometry relative="1" as="geometry" />
        </mxCell>
        <mxCell id="IhsBr4k26jk_mUPnTSFp-37" value="Implement transfer learning and restrictions to policy output to prevent hardware damage." style="rounded=1;whiteSpace=wrap;html=1;absoluteArcSize=1;arcSize=14;strokeWidth=2;" vertex="1" parent="IhsBr4k26jk_mUPnTSFp-36">
          <mxGeometry x="10" y="36" width="133" height="80" as="geometry" />
        </mxCell>
        <mxCell id="IhsBr4k26jk_mUPnTSFp-43" value="" style="edgeStyle=orthogonalEdgeStyle;rounded=0;orthogonalLoop=1;jettySize=auto;html=1;" edge="1" parent="IhsBr4k26jk_mUPnTSFp-36" source="IhsBr4k26jk_mUPnTSFp-39" target="IhsBr4k26jk_mUPnTSFp-42">
          <mxGeometry relative="1" as="geometry" />
        </mxCell>
        <mxCell id="IhsBr4k26jk_mUPnTSFp-39" value="Tune parameters, perturbation, parallelisation settings, and transfer learning." style="rounded=1;whiteSpace=wrap;html=1;absoluteArcSize=1;arcSize=14;strokeWidth=2;" vertex="1" parent="IhsBr4k26jk_mUPnTSFp-36">
          <mxGeometry x="204" y="41" width="132" height="70" as="geometry" />
        </mxCell>
        <mxCell id="IhsBr4k26jk_mUPnTSFp-45" style="edgeStyle=orthogonalEdgeStyle;rounded=0;orthogonalLoop=1;jettySize=auto;html=1;exitX=0.5;exitY=1;exitDx=0;exitDy=0;entryX=1;entryY=0.5;entryDx=0;entryDy=0;entryPerimeter=0;" edge="1" parent="IhsBr4k26jk_mUPnTSFp-36" source="IhsBr4k26jk_mUPnTSFp-42" target="IhsBr4k26jk_mUPnTSFp-44">
          <mxGeometry relative="1" as="geometry" />
        </mxCell>
        <mxCell id="IhsBr4k26jk_mUPnTSFp-42" value="Test on healthy subject" style="rounded=1;whiteSpace=wrap;html=1;absoluteArcSize=1;arcSize=14;strokeWidth=2;" vertex="1" parent="IhsBr4k26jk_mUPnTSFp-36">
          <mxGeometry x="400" y="41" width="132" height="70" as="geometry" />
        </mxCell>
        <mxCell id="IhsBr4k26jk_mUPnTSFp-46" value="No" style="edgeStyle=orthogonalEdgeStyle;rounded=0;orthogonalLoop=1;jettySize=auto;html=1;exitX=0;exitY=0.5;exitDx=0;exitDy=0;exitPerimeter=0;entryX=0.439;entryY=1.034;entryDx=0;entryDy=0;entryPerimeter=0;" edge="1" parent="IhsBr4k26jk_mUPnTSFp-36" source="IhsBr4k26jk_mUPnTSFp-44" target="IhsBr4k26jk_mUPnTSFp-39">
          <mxGeometry relative="1" as="geometry" />
        </mxCell>
        <mxCell id="IhsBr4k26jk_mUPnTSFp-48" value="Yes" style="edgeStyle=orthogonalEdgeStyle;rounded=0;orthogonalLoop=1;jettySize=auto;html=1;exitX=0.5;exitY=1;exitDx=0;exitDy=0;exitPerimeter=0;entryX=0;entryY=0.5;entryDx=0;entryDy=0;" edge="1" parent="IhsBr4k26jk_mUPnTSFp-36" source="IhsBr4k26jk_mUPnTSFp-44" target="IhsBr4k26jk_mUPnTSFp-47">
          <mxGeometry relative="1" as="geometry">
            <Array as="points">
              <mxPoint x="370" y="180" />
              <mxPoint x="390" y="180" />
              <mxPoint x="390" y="170" />
            </Array>
          </mxGeometry>
        </mxCell>
        <mxCell id="IhsBr4k26jk_mUPnTSFp-44" value="good policy?" style="strokeWidth=2;html=1;shape=mxgraph.flowchart.decision;whiteSpace=wrap;" vertex="1" parent="IhsBr4k26jk_mUPnTSFp-36">
          <mxGeometry x="320" y="110" width="100" height="50" as="geometry" />
        </mxCell>
        <mxCell id="IhsBr4k26jk_mUPnTSFp-47" value="Finish" style="rounded=1;whiteSpace=wrap;html=1;absoluteArcSize=1;arcSize=14;strokeWidth=2;" vertex="1" parent="IhsBr4k26jk_mUPnTSFp-36">
          <mxGeometry x="416" y="150" width="100" height="40" as="geometry" />
        </mxCell>
        <mxCell id="IhsBr4k26jk_mUPnTSFp-55" value="5. Transfer to hardware" style="swimlane;fillColor=#FF3333;" vertex="1" parent="WIyWlLk6GJQsqaUBKTNV-1">
          <mxGeometry x="40" y="959" width="540" height="131" as="geometry" />
        </mxCell>
        <mxCell id="IhsBr4k26jk_mUPnTSFp-68" value="" style="edgeStyle=orthogonalEdgeStyle;rounded=0;orthogonalLoop=1;jettySize=auto;html=1;" edge="1" parent="IhsBr4k26jk_mUPnTSFp-55" source="IhsBr4k26jk_mUPnTSFp-61" target="IhsBr4k26jk_mUPnTSFp-67">
          <mxGeometry relative="1" as="geometry" />
        </mxCell>
        <mxCell id="IhsBr4k26jk_mUPnTSFp-61" value="Test on impaired patients." style="rounded=1;whiteSpace=wrap;html=1;absoluteArcSize=1;arcSize=14;strokeWidth=2;" vertex="1" parent="IhsBr4k26jk_mUPnTSFp-55">
          <mxGeometry x="100" y="41" width="132" height="70" as="geometry" />
        </mxCell>
        <mxCell id="IhsBr4k26jk_mUPnTSFp-67" value="Collect data." style="rounded=1;whiteSpace=wrap;html=1;absoluteArcSize=1;arcSize=14;strokeWidth=2;" vertex="1" parent="IhsBr4k26jk_mUPnTSFp-55">
          <mxGeometry x="310" y="41" width="132" height="70" as="geometry" />
        </mxCell>
        <mxCell id="IhsBr4k26jk_mUPnTSFp-70" value="&lt;b&gt;Goal:&lt;/b&gt;&amp;nbsp;To develop an initial plan for the training algorithm architecture and reward function, which incorperates activation energy prediction, gait correction, and patient effort maximisation." style="rounded=0;whiteSpace=wrap;html=1;fillColor=#FFFFFF;" vertex="1" parent="WIyWlLk6GJQsqaUBKTNV-1">
          <mxGeometry x="600" width="190" height="130" as="geometry" />
        </mxCell>
        <mxCell id="IhsBr4k26jk_mUPnTSFp-71" value="&lt;b&gt;Goal:&lt;/b&gt;&amp;nbsp;To produce a single instance of an impaired patient simulation for initial algorithm testing." style="rounded=0;whiteSpace=wrap;html=1;fillColor=#FFFFFF;" vertex="1" parent="WIyWlLk6GJQsqaUBKTNV-1">
          <mxGeometry x="600" y="162" width="190" height="130" as="geometry" />
        </mxCell>
        <mxCell id="IhsBr4k26jk_mUPnTSFp-72" value="&lt;b&gt;Goal:&lt;/b&gt;&amp;nbsp;To develop and tune each sub-component of the algorithm, untill good performance is achieved for the single instance case." style="rounded=0;whiteSpace=wrap;html=1;fillColor=#FFFFFF;" vertex="1" parent="WIyWlLk6GJQsqaUBKTNV-1">
          <mxGeometry x="600" y="321" width="190" height="130" as="geometry" />
        </mxCell>
        <mxCell id="IhsBr4k26jk_mUPnTSFp-75" value="&lt;b&gt;Goal:&lt;/b&gt;&amp;nbsp;To create a GPU-parallelised simulation environment, with perturbations applied. This stage also involves evaluating the effect of parallelisation and perturbations on algorithm robustness and generalisation." style="rounded=0;whiteSpace=wrap;html=1;fillColor=#FFFFFF;" vertex="1" parent="WIyWlLk6GJQsqaUBKTNV-1">
          <mxGeometry x="600" y="480" width="190" height="230" as="geometry" />
        </mxCell>
        <mxCell id="IhsBr4k26jk_mUPnTSFp-76" value="&lt;b&gt;Goal:&lt;/b&gt;&amp;nbsp;To optimise the transfer from simulation to hardware by minimising the loss in robustness and versatility through adjustment of training hyperparameters, parallelisation settings (number of instances, etc), and the type, frequency, and magnitude of perturbations." style="rounded=0;whiteSpace=wrap;html=1;fillColor=#FFFFFF;" vertex="1" parent="WIyWlLk6GJQsqaUBKTNV-1">
          <mxGeometry x="600" y="730" width="190" height="210" as="geometry" />
        </mxCell>
        <mxCell id="IhsBr4k26jk_mUPnTSFp-77" value="&lt;b&gt;Goal:&lt;/b&gt;&amp;nbsp;To investigate and evaluate the transfer of a DRL algorithm which was trained on a GPU-parallelised environment to a hardware exoskeleton system designed for stroke patient gait rehabilitation." style="rounded=0;whiteSpace=wrap;html=1;fillColor=#FFFFFF;" vertex="1" parent="WIyWlLk6GJQsqaUBKTNV-1">
          <mxGeometry x="600" y="960" width="190" height="130" as="geometry" />
        </mxCell>
      </root>
    </mxGraphModel>
  </diagram>
</mxfile>
